<?xml version="1.0" standalone="no"?>
<!DOCTYPE svg PUBLIC "-//W3C//DTD SVG 20010904//EN"
 "http://www.w3.org/TR/2001/REC-SVG-20010904/DTD/svg10.dtd">
<svg version="1.0" xmlns="http://www.w3.org/2000/svg"
 width="784.000000pt" height="784.000000pt" viewBox="0 0 784.000000 784.000000"
 preserveAspectRatio="xMidYMid meet">
<metadata>
Created by potrace 1.11, written by Peter Selinger 2001-2013
</metadata>
<g transform="translate(0.000000,784.000000) scale(0.100000,-0.100000)"
fill="#000000" stroke="none">
<path d="M1300 6993 c0 -5 -12 -22 -28 -38 -15 -17 -67 -77 -116 -135 -49 -58
-94 -109 -100 -115 -6 -5 -27 -30 -47 -55 -21 -25 -50 -59 -65 -77 -16 -18
-40 -47 -54 -64 -14 -18 -32 -40 -40 -48 -17 -17 -115 -132 -146 -170 -10 -13
-26 -31 -35 -40 -8 -9 -37 -43 -65 -76 -27 -33 -54 -64 -60 -70 -6 -5 -35 -39
-65 -75 -114 -136 -183 -215 -191 -218 -4 -2 -8 -10 -8 -18 0 -8 -4 -14 -8
-14 -4 0 -37 -35 -72 -77 -72 -87 -107 -127 -163 -187 -41 -45 -39 -27 -22
-194 6 -54 6 -54 85 -142 36 -40 73 -82 83 -94 30 -34 141 -158 157 -175 9 -9
47 -52 85 -96 39 -44 79 -89 90 -101 11 -12 47 -52 80 -89 33 -38 69 -78 80
-91 11 -12 43 -48 72 -80 28 -33 65 -75 83 -94 17 -19 55 -61 83 -93 29 -32
61 -69 72 -81 11 -12 47 -53 80 -90 59 -66 73 -82 145 -162 19 -22 67 -75 105
-119 39 -44 77 -87 85 -95 8 -9 34 -39 58 -66 24 -27 70 -78 102 -114 32 -36
67 -74 77 -86 16 -19 128 -145 178 -200 11 -12 43 -49 72 -81 29 -33 65 -73
80 -90 15 -17 41 -46 58 -64 16 -19 63 -72 105 -119 41 -47 89 -100 105 -119
17 -19 45 -49 63 -68 18 -18 31 -33 29 -33 -3 0 12 -17 32 -38 20 -21 59 -64
86 -96 28 -31 61 -69 75 -84 14 -15 57 -63 95 -106 39 -44 81 -91 95 -107 23
-25 93 -104 145 -163 70 -80 154 -174 175 -196 14 -15 45 -51 70 -80 25 -28
63 -71 85 -95 22 -23 59 -64 81 -91 23 -27 59 -68 80 -91 22 -23 63 -68 92
-101 29 -33 63 -71 75 -84 12 -13 36 -40 52 -60 25 -29 128 -145 185 -208 8
-9 49 -54 90 -101 41 -46 88 -99 104 -117 l29 -32 21 26 c12 15 36 43 54 62
17 19 44 51 60 70 26 34 49 62 143 173 62 72 179 210 204 240 53 64 130 155
135 159 3 3 25 30 50 60 24 30 52 63 61 72 10 10 30 34 46 55 15 20 39 49 53
64 14 14 41 46 60 70 19 24 53 64 75 89 22 26 94 111 160 190 66 79 127 151
135 160 8 8 46 54 85 100 38 47 74 90 80 96 22 24 105 123 165 194 111 135
135 163 150 179 9 9 49 56 90 106 41 49 83 99 93 110 10 11 28 33 40 48 12 16
37 44 55 63 17 19 32 37 32 39 0 4 27 37 65 79 6 6 33 38 60 71 56 67 64 76
165 195 101 119 109 128 165 195 27 33 54 65 60 71 5 6 24 27 40 48 17 21 39
48 50 60 12 12 39 44 60 71 22 27 51 60 64 74 13 14 35 42 50 61 14 19 33 42
42 50 9 8 35 40 59 70 24 30 48 60 54 65 6 6 45 51 86 100 41 50 77 92 80 95
3 3 52 61 110 130 57 69 107 127 110 130 3 3 25 30 50 60 25 30 50 61 57 68 7
7 29 34 50 60 21 26 41 49 44 52 4 3 35 39 69 80 72 87 149 177 168 197 7 7
10 13 6 13 -4 0 2 8 14 18 21 18 23 29 37 182 4 52 3 56 -27 80 -30 24 -157
146 -533 515 -90 88 -308 302 -485 475 -178 173 -336 330 -353 348 l-30 32
-2554 0 c-1404 0 -2553 -3 -2553 -7z"/>
</g>
</svg>
